<?xml version="1.0" standalone="no"?>
<!DOCTYPE svg PUBLIC "-//W3C//DTD SVG 20010904//EN"
 "http://www.w3.org/TR/2001/REC-SVG-20010904/DTD/svg10.dtd">
<svg version="1.0" xmlns="http://www.w3.org/2000/svg"
 width="1500.000000pt" height="1500.000000pt" viewBox="0 0 1500.000000 1500.000000"
 preserveAspectRatio="xMidYMid meet">

<g transform="translate(0.000000,1500.000000) scale(0.100000,-0.100000)"
fill="#000000" stroke="none">
<path d="M7216 11351 c-37 -41 -48 -174 -22 -283 7 -32 12 -58 11 -58 -2 0
-47 30 -102 66 -135 91 -206 124 -269 124 -27 0 -55 -5 -62 -12 -22 -22 -13
-90 18 -147 29 -52 29 -53 7 -46 -12 3 -68 9 -124 12 -111 6 -158 -5 -168 -38
-8 -25 17 -70 60 -107 l35 -32 -38 -19 c-21 -11 -61 -37 -88 -58 -27 -22 -57
-42 -67 -46 -38 -14 -107 46 -215 184 -199 256 -519 417 -781 395 -167 -14
-306 -127 -398 -323 -93 -200 -115 -544 -57 -883 42 -246 152 -503 331 -773
36 -53 68 -99 73 -102 9 -6 -16 -115 -42 -180 -68 -172 -81 -220 -82 -300 0
-85 21 -155 47 -155 8 0 30 17 48 38 l34 37 0 -175 c1 -236 26 -333 97 -368
31 -15 52 -8 65 21 9 19 12 14 22 -38 21 -100 49 -186 87 -265 73 -152 118
-179 140 -85 6 28 12 43 13 35 3 -33 90 -231 137 -310 69 -117 111 -160 157
-160 46 0 77 29 77 70 0 17 5 30 10 30 6 0 10 -4 10 -8 0 -19 141 -222 193
-278 31 -34 81 -74 111 -90 47 -25 56 -26 71 -14 14 11 16 26 13 69 l-5 54 20
-29 c49 -70 139 -146 215 -181 42 -20 79 -38 81 -40 3 -2 -9 -18 -26 -36 -39
-41 -60 -83 -74 -147 -12 -56 0 -103 28 -114 17 -7 69 18 75 36 3 7 10 -8 16
-34 14 -53 50 -88 93 -88 25 0 29 5 34 38 12 69 14 70 48 28 32 -39 168 -136
192 -136 7 0 18 6 24 14 10 12 18 11 54 -10 23 -13 44 -24 47 -24 3 0 3 21 1
48 l-3 47 23 -20 c13 -11 38 -32 56 -48 l31 -29 29 20 c15 11 39 32 52 46 35
37 44 33 39 -19 -3 -25 -3 -45 0 -45 3 0 24 11 48 25 36 21 43 23 54 10 7 -8
17 -15 22 -15 23 0 170 106 197 142 l29 40 9 -54 c7 -45 12 -53 32 -56 51 -8
101 44 101 104 l0 27 23 -20 c61 -56 102 -28 95 65 -5 66 -34 130 -81 180 -22
22 -26 32 -15 32 27 0 151 68 200 110 25 22 60 61 77 87 l31 46 0 -62 c0 -74
11 -82 73 -55 65 30 157 128 246 263 44 69 81 116 81 105 0 -10 9 -34 20 -51
17 -28 25 -33 58 -33 27 0 47 7 64 23 62 57 163 237 214 382 16 44 29 73 31
65 12 -88 13 -91 41 -88 21 2 35 17 63 63 49 83 94 195 114 290 24 111 25 114
35 89 13 -32 25 -36 64 -20 23 9 42 28 55 53 36 72 56 258 43 406 l-8 88 38
-41 c22 -23 46 -40 55 -38 28 5 45 75 41 173 -4 78 -10 105 -49 205 -25 63
-52 144 -61 180 l-16 65 53 75 c169 243 306 543 349 766 57 303 40 691 -39
887 -60 150 -167 276 -281 329 -65 31 -76 33 -179 33 -132 -1 -212 -19 -341
-80 -166 -78 -295 -181 -407 -329 -70 -92 -132 -155 -165 -167 -27 -10 -48 -1
-107 46 -22 17 -56 40 -75 51 -19 10 -37 20 -39 21 -2 2 17 25 42 52 85 90 55
131 -95 131 -46 0 -101 -5 -123 -10 -22 -5 -41 -7 -43 -6 -1 2 6 19 17 37 11
19 25 53 31 77 23 88 -42 117 -162 72 -29 -11 -102 -53 -163 -94 -60 -41 -111
-73 -113 -71 -1 1 2 24 8 51 18 79 15 215 -5 255 -10 19 -23 37 -29 41 -25 17
-67 6 -113 -28 -64 -48 -88 -77 -126 -152 -29 -59 -32 -62 -45 -45 -8 10 -20
32 -27 48 -24 55 -74 114 -127 150 -59 39 -97 44 -122 16z m-1605 -120 c77
-29 184 -106 252 -181 l56 -62 -77 -39 c-120 -60 -207 -121 -210 -147 -5 -30
19 -37 74 -22 l46 13 41 -41 41 -42 -32 -33 c-18 -18 -32 -41 -32 -52 0 -17
-3 -16 -27 7 -42 40 -81 52 -109 33 -23 -15 -24 -14 -45 27 -49 98 -121 158
-188 158 -42 0 -88 -43 -102 -93 -44 -161 48 -848 131 -983 22 -35 62 -54 98
-45 41 11 89 70 201 246 147 230 228 382 214 404 -20 32 -47 23 -120 -44 -40
-37 -73 -65 -73 -63 0 2 9 31 20 64 28 91 35 171 18 220 l-15 41 26 -10 c20
-7 39 -4 78 11 l51 19 52 -52 52 -52 -21 -41 c-34 -66 -24 -102 28 -102 19 0
46 21 103 83 43 45 78 76 78 68 0 -20 44 -6 113 35 32 19 67 34 78 34 28 0 73
25 144 79 33 25 102 64 152 85 51 21 90 42 87 47 -7 12 -18 13 162 -16 86 -14
161 -24 167 -22 5 1 -16 30 -46 64 l-57 60 43 -8 c24 -4 97 -24 163 -43 67
-20 126 -36 133 -36 8 0 -1 25 -22 64 l-33 64 43 -15 44 -15 -3 -77 -3 -76 58
-31 57 -32 58 32 57 31 -3 73 -3 73 37 15 c20 8 38 13 41 10 3 -3 -9 -30 -27
-61 -18 -31 -30 -58 -28 -60 2 -2 73 17 157 41 85 25 161 43 168 42 9 -2 -4
-23 -36 -60 -28 -31 -51 -58 -51 -61 0 -3 173 24 308 48 19 4 32 2 29 -3 -3
-4 35 -26 86 -48 51 -21 120 -60 155 -87 75 -56 113 -77 142 -77 12 0 47 -16
78 -34 96 -59 101 -58 146 26 l39 72 25 -29 c93 -111 122 -135 156 -135 28 0
56 38 56 74 0 29 -8 39 -52 74 -29 22 -71 56 -92 75 l-40 34 43 64 c24 35 45
66 47 68 6 7 172 -144 169 -154 -4 -16 93 -5 107 12 14 17 19 105 6 97 -5 -3
-20 3 -36 14 -15 10 -62 38 -104 61 -43 23 -78 46 -78 50 0 4 30 39 68 78 l67
71 84 -89 84 -89 -19 -23 -19 -22 22 18 c20 18 23 18 45 3 32 -23 71 -20 97 8
39 42 26 62 -102 159 -64 49 -115 93 -111 98 3 5 27 20 53 33 272 138 517 9
601 -318 28 -111 43 -309 36 -471 -17 -397 -134 -773 -333 -1072 -42 -65 -80
-119 -83 -121 -30 -15 -30 -20 0 -84 42 -93 69 -199 77 -297 7 -98 -5 -106
-47 -28 -14 26 -27 47 -30 47 -3 0 -2 -39 2 -87 9 -101 3 -201 -19 -325 -27
-153 -55 -157 -77 -10 -7 51 -16 95 -19 98 -2 3 -8 -21 -12 -53 -14 -117 -47
-292 -82 -440 -30 -124 -40 -153 -54 -153 -16 0 -17 11 -12 119 3 66 3 127 -1
137 -5 13 -24 -32 -60 -141 -60 -182 -101 -280 -159 -380 -132 -228 -174 -220
-131 26 13 78 23 144 21 146 -7 6 -74 -102 -118 -188 -58 -116 -138 -246 -208
-337 -108 -142 -131 -147 -131 -26 0 69 3 80 29 113 50 63 64 102 69 185 l5
80 16 -45 c9 -24 21 -43 26 -42 25 5 31 146 11 241 l-13 63 22 -27 c26 -32 45
-25 45 16 0 47 -21 132 -45 183 -18 38 -19 47 -7 47 38 0 -23 147 -95 229 -41
47 -43 51 -20 46 14 -4 27 -2 31 3 8 13 -64 93 -122 136 -31 22 -76 75 -124
143 -129 185 -140 217 -108 337 11 44 22 81 24 83 2 2 32 -14 66 -36 100 -65
197 -75 297 -31 72 32 68 78 -5 58 -36 -10 -122 -3 -122 11 0 4 21 12 46 19
33 9 57 25 87 59 103 114 121 128 185 147 34 11 89 20 122 20 35 0 60 5 60 11
0 17 -90 100 -145 133 l-50 31 28 10 c47 18 28 55 -46 86 -54 22 -67 20 -67
-14 0 -41 -37 -80 -81 -87 -28 -5 -41 -1 -66 20 -37 31 -46 69 -27 115 l14 34
-24 -26 c-17 -19 -35 -27 -58 -27 -18 0 -52 -9 -75 -19 -40 -19 -41 -20 -36
-58 8 -60 -35 -91 -87 -63 -15 8 -23 4 -44 -21 l-26 -30 26 -22 c48 -41 25
-127 -34 -127 -13 0 -37 9 -53 21 -22 16 -29 29 -31 57 l-1 37 -4 -33 c-3 -22
1 -40 12 -52 19 -21 13 -52 -14 -84 -15 -18 -15 -18 7 -7 30 16 61 5 68 -25 8
-30 -11 -54 -41 -54 -25 0 -40 14 -48 45 -3 11 -4 2 -1 -20 3 -22 0 -99 -5
-172 -12 -158 -9 -168 106 -337 61 -88 70 -106 47 -91 -49 32 -78 45 -101 45
-13 0 -23 -2 -23 -5 0 -17 44 -66 134 -147 152 -138 177 -178 73 -119 -79 45
-114 40 -62 -9 19 -18 22 -26 13 -37 -8 -11 -7 -12 6 -7 13 5 40 -16 101 -78
l84 -84 -41 0 c-23 1 -43 -4 -45 -10 -2 -6 27 -50 63 -99 58 -76 62 -85 32
-62 -19 15 -38 27 -41 27 -13 0 -7 -39 10 -76 l18 -36 -35 -30 c-82 -69 -244
-129 -359 -133 -57 -2 -86 -7 -92 -16 -30 -48 25 -73 156 -74 118 0 219 22
318 70 55 27 67 30 67 16 -1 -20 -124 -98 -205 -129 -188 -72 -185 -72 -289
-42 -38 11 -73 17 -77 14 -34 -21 28 -74 116 -100 64 -18 206 -24 265 -11 19
4 -3 -9 -50 -30 -78 -34 -92 -37 -170 -36 -47 1 -101 3 -120 5 -30 3 -35 0
-38 -20 -3 -19 6 -27 55 -50 54 -25 67 -27 183 -27 113 1 131 3 189 28 35 15
66 25 68 24 7 -8 -60 -97 -109 -146 l-53 -53 -7 31 c-16 59 -78 79 -122 39
-40 -37 -42 -64 -8 -98 l29 -29 -60 -21 c-34 -11 -71 -20 -84 -20 -36 0 -83
23 -137 68 -55 45 -99 60 -121 42 -12 -10 -20 -9 -40 4 -13 9 -37 16 -54 16
-17 0 -31 6 -35 16 -3 9 -6 83 -6 166 0 139 -1 150 -17 143 -26 -11 -172 -14
-179 -4 -3 5 -12 9 -19 9 -12 0 -15 -30 -17 -162 l-3 -163 -37 -6 c-20 -3 -43
-11 -51 -18 -12 -9 -21 -9 -41 0 -33 16 -72 -1 -139 -59 -63 -55 -113 -63
-202 -31 -65 23 -65 23 -41 36 49 26 43 103 -10 123 -54 21 -92 2 -103 -52
l-7 -32 -46 42 c-46 42 -125 148 -117 156 2 2 31 -7 64 -21 89 -37 247 -44
338 -14 79 27 103 49 83 76 -12 17 -18 18 -69 5 -32 -7 -79 -11 -109 -7 -51 5
-224 64 -215 73 2 2 28 -1 56 -8 102 -23 296 17 346 72 19 21 13 55 -8 47 -6
-2 -45 -12 -85 -22 -59 -15 -82 -16 -115 -7 -75 19 -211 77 -270 115 -31 21
-64 40 -72 43 -8 4 -15 14 -15 25 0 16 7 15 68 -15 97 -49 198 -71 317 -71
131 1 186 26 156 74 -6 9 -34 14 -92 16 -114 3 -276 64 -360 135 l-34 28 18
36 c17 37 23 76 10 76 -3 0 -22 -12 -41 -26 -29 -23 -24 -13 32 61 37 48 65
92 63 98 -2 7 -22 12 -45 11 l-41 0 84 84 c61 62 88 83 101 78 13 -5 14 -4 6
7 -9 11 -6 19 13 37 52 49 13 55 -58 10 -48 -30 -67 -36 -67 -22 0 4 61 66
135 137 74 72 135 136 135 143 0 26 -55 12 -123 -32 -21 -15 -11 5 47 87 72
103 142 246 132 270 -2 7 -5 4 -5 -5 -1 -10 -5 -18 -11 -18 -5 0 -10 21 -10
48 0 103 -13 213 -24 202 -15 -15 -52 -12 -66 5 -17 20 -5 62 20 70 10 3 30 1
42 -6 22 -11 22 -11 7 7 -9 10 -20 29 -23 42 -7 19 -12 21 -47 16 -48 -8 -79
15 -79 58 0 40 14 63 48 77 36 15 79 0 92 -31 6 -16 9 -18 9 -6 1 24 -48 59
-78 56 -18 -2 -33 5 -49 24 -19 22 -27 26 -42 18 -62 -33 -121 40 -73 92 27
31 82 18 96 -22 4 -12 6 -11 6 2 1 28 -43 51 -84 44 -22 -4 -44 -2 -62 8 -16
8 -51 17 -78 21 -35 5 -56 15 -70 32 -15 18 -34 26 -66 30 -39 4 -49 2 -75
-22 l-29 -26 32 22 c26 18 39 20 78 15 39 -6 48 -12 62 -41 18 -37 13 -71 -16
-106 -15 -19 -29 -24 -65 -24 -60 0 -90 28 -91 85 0 40 -1 40 -30 34 -46 -10
-102 -41 -109 -61 -5 -12 0 -24 15 -36 12 -9 20 -19 18 -21 -2 -1 -30 -20 -61
-40 -63 -41 -121 -101 -115 -119 2 -7 19 -10 40 -9 47 4 142 -15 187 -38 20
-10 64 -50 99 -89 68 -77 95 -95 156 -107 37 -7 38 -7 15 -16 -14 -5 -59 -8
-100 -6 -65 3 -75 1 -78 -15 -3 -13 11 -24 50 -42 98 -46 230 -27 320 45 l38
31 11 -28 c28 -75 40 -153 28 -196 -22 -83 -174 -307 -239 -352 -45 -31 -130
-121 -130 -137 0 -6 13 -8 29 -6 l29 4 -49 -60 c-55 -68 -84 -123 -95 -181 -6
-32 -4 -37 9 -32 12 5 11 -4 -8 -46 -38 -87 -57 -208 -35 -222 5 -3 20 5 33
19 l23 25 -13 -62 c-19 -95 -13 -237 12 -239 6 0 17 21 26 47 l16 48 5 -84 c5
-90 27 -149 76 -201 24 -26 25 -31 19 -103 -8 -86 -11 -96 -31 -89 -42 16
-199 244 -306 445 -74 138 -109 193 -117 185 -3 -2 5 -65 18 -138 34 -198 14
-236 -65 -129 -85 117 -177 321 -247 551 -13 41 -27 80 -31 85 -5 6 -8 -49 -7
-125 1 -112 -1 -135 -14 -138 -11 -2 -20 18 -36 76 -31 115 -78 353 -92 463
-6 51 -15 97 -18 102 -4 4 -13 -33 -19 -82 -14 -104 -19 -121 -38 -121 -33 0
-68 231 -60 405 l5 130 -27 -49 c-45 -81 -56 -74 -49 30 8 107 28 185 72 280
26 57 38 73 60 78 15 4 79 58 151 129 106 105 124 127 123 152 l-2 30 -4 -30
c-3 -22 -34 -59 -124 -147 -113 -112 -151 -137 -183 -125 -18 7 -167 230 -208
311 -163 323 -250 778 -219 1141 29 336 123 508 319 582 52 19 182 11 253 -16z
m407 -370 l21 -29 -97 -60 -97 -61 -42 42 c-24 22 -40 43 -37 46 5 6 213 89
225 90 3 1 15 -12 27 -28z m118 -184 c15 -27 14 -30 -18 -65 -18 -20 -43 -50
-55 -67 l-22 -30 -53 53 c-43 43 -50 55 -38 62 8 5 46 29 85 54 74 47 71 47
101 -7z m-637 -36 c25 -25 45 -120 36 -172 -13 -74 -56 -90 -107 -39 -30 31
-30 32 -26 117 4 69 8 88 23 99 26 19 52 17 74 -5z m149 -263 c34 -34 -5 -96
-102 -163 -87 -60 -119 -22 -50 61 90 111 122 132 152 102z m0 -287 c5 -33
-44 -83 -78 -79 -37 4 -39 43 -4 80 35 36 77 36 82 -1z m844 -747 c4 -3 0 -21
-8 -39 -17 -42 -7 -72 36 -108 45 -38 83 -34 137 16 19 17 25 18 38 7 47 -39
40 -67 -26 -101 -74 -37 -189 -15 -237 46 -29 37 -45 99 -37 146 7 38 8 39 49
39 24 0 45 -3 48 -6z m2112 -16 c18 -69 -11 -149 -69 -194 -30 -22 -50 -29
-101 -32 -55 -4 -69 -1 -108 22 -25 14 -48 31 -52 37 -3 6 6 24 21 39 l28 29
29 -24 c39 -33 72 -40 109 -24 32 13 69 61 69 89 0 8 -6 27 -14 42 -16 31 -10
36 45 37 30 1 38 -3 43 -21z m-2030 -19 c26 -20 26 -22 10 -40 -34 -37 -82
-12 -70 36 8 31 25 32 60 4z m1911 2 c14 -45 -23 -71 -63 -45 l-26 17 28 23
c33 29 53 30 61 5z m-1893 -1899 c-10 -3 -72 24 -72 32 0 3 19 -3 41 -12 23
-9 37 -18 31 -20z m1838 8 c-8 -5 -19 -10 -25 -10 -5 0 -3 5 5 10 8 5 20 10
25 10 6 0 3 -5 -5 -10z m-897 -394 c47 -49 92 -66 178 -66 119 0 249 -60 339
-157 68 -72 74 -88 30 -79 -28 5 -30 4 -20 -14 14 -27 12 -60 -4 -66 -8 -3
-34 7 -58 23 -72 50 -71 49 -63 14 17 -77 -41 -120 -85 -64 -17 22 -23 25 -30
13 -6 -8 -10 -19 -10 -23 0 -4 -16 -15 -36 -23 -47 -20 -84 -11 -84 18 0 21
-1 21 -27 -5 -41 -38 -94 -57 -163 -57 -69 0 -122 19 -162 57 -27 26 -28 26
-28 5 0 -29 -37 -38 -84 -18 -20 8 -36 19 -36 23 0 4 -4 15 -10 23 -7 12 -13
9 -30 -13 -41 -52 -86 -25 -83 50 2 47 3 47 -61 1 -21 -15 -45 -28 -52 -28
-18 0 -27 36 -15 59 16 29 14 32 -14 25 -42 -10 -30 22 30 86 88 91 220 150
340 150 27 0 67 5 87 10 47 13 98 56 98 81 0 27 5 25 53 -25z"/>
<path d="M5418 11023 c7 -3 16 -2 19 1 4 3 -2 6 -13 5 -11 0 -14 -3 -6 -6z"/>
<path d="M9528 11023 c7 -3 16 -2 19 1 4 3 -2 6 -13 5 -11 0 -14 -3 -6 -6z"/>
<path d="M5353 10988 c-11 -13 -24 -30 -28 -38 -8 -16 -6 -14 34 33 14 15 22
27 19 27 -2 0 -14 -10 -25 -22z"/>
<path d="M5306 10915 c-9 -26 -7 -32 5 -12 6 10 9 21 6 23 -2 3 -7 -2 -11 -11z"/>
<path d="M5286 10865 c-3 -9 -6 -22 -5 -28 0 -7 5 -1 10 12 5 13 8 26 5 28 -2
2 -6 -3 -10 -12z"/>
<path d="M9525 10826 c-40 -24 -87 -81 -119 -145 -13 -24 -21 -30 -29 -22 -34
34 -119 -9 -155 -79 -20 -38 -23 -55 -19 -115 3 -38 14 -98 25 -133 l20 -63
-73 66 c-40 36 -79 65 -87 65 -17 0 -38 -20 -38 -36 0 -20 111 -217 221 -390
149 -235 192 -274 260 -239 40 21 60 68 103 242 63 256 98 661 67 770 -26 95
-99 127 -176 79z m50 -180 c16 -11 20 -30 23 -90 3 -46 -1 -88 -8 -105 -21
-53 -101 -66 -115 -19 -11 33 -8 134 5 172 17 53 57 70 95 42z m-137 -293 c20
-21 53 -60 74 -86 31 -40 36 -52 28 -68 -16 -29 -36 -24 -100 26 -89 69 -119
122 -88 153 21 21 50 13 86 -25z m-13 -249 c52 -52 54 -94 5 -94 -45 0 -99 77
-73 103 12 13 51 7 68 -9z"/>
<path d="M5261 10774 c0 -11 3 -14 6 -6 3 7 2 16 -1 19 -3 4 -6 -2 -5 -13z"/>
<path d="M7275 10759 c-4 -6 -4 -13 -1 -16 3 -4 6 0 6 7 0 9 12 11 46 7 29 -3
41 -1 33 4 -20 12 -76 11 -84 -2z"/>
<path d="M5251 10734 c0 -11 3 -14 6 -6 3 7 2 16 -1 19 -3 4 -6 -2 -5 -13z"/>
<path d="M7018 10724 c-5 -4 -8 -12 -8 -18 0 -6 4 -5 9 3 8 13 23 13 99 3 102
-14 169 -15 175 -4 3 4 -25 7 -61 7 -37 0 -98 4 -137 9 -38 4 -73 5 -77 0z"/>
<path d="M5241 10684 c0 -11 3 -14 6 -6 3 7 2 16 -1 19 -3 4 -6 -2 -5 -13z"/>
<path d="M9751 10684 c0 -11 3 -14 6 -6 3 7 2 16 -1 19 -3 4 -6 -2 -5 -13z"/>
<path d="M7969 10673 c-13 -16 -12 -17 4 -4 9 7 17 15 17 17 0 8 -8 3 -21 -13z"/>
<path d="M6837 10663 c-4 -3 -7 -11 -7 -17 0 -7 3 -6 8 1 5 8 44 13 107 16
l100 3 -101 2 c-55 1 -104 -1 -107 -5z"/>
<path d="M9099 10653 c-13 -16 -12 -17 4 -4 16 13 21 21 13 21 -2 0 -10 -8
-17 -17z"/>
<path d="M5232 10630 c0 -19 2 -27 5 -17 2 9 2 25 0 35 -3 9 -5 1 -5 -18z"/>
<path d="M6572 10617 c-28 -30 -29 -80 -2 -107 20 -20 19 -20 -73 -82 -147
-99 -277 -197 -277 -210 0 -7 5 -5 13 4 16 21 157 125 271 200 85 56 91 58
149 57 54 -2 63 1 84 25 13 15 23 35 23 45 0 11 12 24 30 31 16 7 35 18 41 26
6 8 -9 3 -34 -11 -38 -21 -46 -23 -51 -10 -9 26 -69 55 -112 55 -29 0 -46 -6
-62 -23z"/>
<path d="M9762 10620 c0 -14 2 -19 5 -12 2 6 2 18 0 25 -3 6 -5 1 -5 -13z"/>
<path d="M7733 10623 c-12 -2 -33 -15 -47 -28 -53 -49 -21 -121 52 -118 78 2
122 41 108 96 -5 22 -60 59 -83 56 -4 -1 -18 -4 -30 -6z"/>
<path d="M6920 10577 c-14 -7 -31 -25 -38 -40 -12 -25 -11 -34 10 -84 39 -94
91 -117 150 -64 25 22 32 36 31 63 -2 90 -88 159 -153 125z"/>
<path d="M5223 10505 c0 -44 2 -61 4 -37 2 23 2 59 0 80 -2 20 -4 1 -4 -43z"/>
<path d="M9768 10390 c-3 -96 -14 -218 -23 -270 -42 -235 -175 -601 -222 -613
-13 -3 -13 -5 -3 -6 27 -2 37 13 83 119 123 289 181 560 175 815 l-3 130 -7
-175z"/>
<path d="M8058 10510 c-27 -27 -30 -36 -26 -73 20 -173 209 -240 258 -92 21
63 -35 141 -127 175 -69 26 -69 26 -105 -10z"/>
<path d="M8924 10478 l-29 -33 33 29 c30 28 37 36 29 36 -2 0 -16 -15 -33 -32z"/>
<path d="M7446 10485 c-39 -21 -190 -150 -210 -180 -34 -52 -6 -113 61 -136
48 -15 185 -6 241 16 119 48 121 137 4 271 -35 40 -60 48 -96 29z"/>
<path d="M8869 10433 c-13 -16 -12 -17 4 -4 16 13 21 21 13 21 -2 0 -10 -8
-17 -17z"/>
<path d="M5221 10324 c0 -38 4 -89 9 -114 5 -29 6 -5 2 65 -5 124 -12 154 -11
49z"/>
<path d="M6466 10325 c-22 -8 -51 -25 -64 -39 -29 -28 -63 -111 -56 -131 9
-23 60 -28 116 -11 103 30 169 97 148 150 -17 46 -70 58 -144 31z"/>
<path d="M7787 10282 c-24 -26 -21 -51 8 -95 18 -25 33 -37 50 -37 59 0 74 72
26 121 -34 33 -61 37 -84 11z"/>
<path d="M8445 10246 c-108 -46 -150 -127 -89 -175 53 -42 195 -12 262 55 39
39 40 64 4 105 -39 43 -96 48 -177 15z"/>
<path d="M6830 10231 c-38 -37 -47 -74 -26 -106 22 -33 74 -34 103 -2 46 50
54 86 23 117 -28 28 -66 25 -100 -9z"/>
<path d="M8761 10197 c-13 -21 -12 -21 5 -5 10 10 16 20 13 22 -3 3 -11 -5
-18 -17z"/>
<path d="M6220 10144 c-18 -18 -36 -24 -68 -24 -58 0 -84 -16 -174 -107 -108
-110 -128 -153 -88 -193 13 -13 33 -20 60 -20 46 0 47 -4 20 -45 -11 -16 -20
-34 -20 -40 0 -5 13 11 28 38 24 40 41 54 106 87 141 72 185 122 172 194 -4
21 -18 44 -33 56 l-27 21 29 24 c17 13 28 25 25 28 -3 2 -16 -6 -30 -19z"/>
<path d="M5242 10135 c0 -16 2 -22 5 -12 2 9 2 23 0 30 -3 6 -5 -1 -5 -18z"/>
<path d="M5252 10080 c0 -14 2 -19 5 -12 2 6 2 18 0 25 -3 6 -5 1 -5 -13z"/>
<path d="M5261 10042 c-1 -19 32 -148 36 -137 1 6 -6 42 -16 80 -11 39 -20 64
-20 57z"/>
<path d="M7537 10012 c-62 -69 -117 -415 -71 -453 12 -10 20 -10 35 -1 10 7
26 12 36 12 15 0 89 46 306 189 70 46 85 90 45 135 -22 24 -285 136 -320 136
-8 0 -22 -8 -31 -18z"/>
<path d="M8888 10013 c7 -3 16 -2 19 1 4 3 -2 6 -13 5 -11 0 -14 -3 -6 -6z"/>
<path d="M7204 9930 c-55 -27 -228 -171 -247 -206 -16 -28 20 -60 132 -123 94
-53 117 -61 161 -61 48 0 52 2 64 33 8 17 17 55 21 82 3 28 15 81 26 120 10
38 19 87 19 107 0 81 -71 101 -176 48z"/>
<path d="M8595 9949 c-4 -6 -4 -13 -1 -16 3 -4 6 -1 6 6 0 8 8 11 20 8 11 -3
18 -1 14 4 -7 12 -31 11 -39 -2z"/>
<path d="M8724 9908 c-4 -7 -4 -10 1 -6 4 4 15 2 24 -5 14 -11 14 -10 2 6 -16
20 -18 21 -27 5z"/>
<path d="M8582 9890 c0 -14 2 -19 5 -12 2 6 2 18 0 25 -3 6 -5 1 -5 -13z"/>
<path d="M8960 9900 c0 -5 5 -10 11 -10 5 0 7 5 4 10 -3 6 -8 10 -11 10 -2 0
-4 -4 -4 -10z"/>
<path d="M5301 9884 c-2 -27 107 -310 115 -301 2 2 -6 26 -18 53 -12 27 -39
96 -59 154 -21 58 -38 100 -38 94z"/>
<path d="M8711 9864 c0 -11 3 -14 6 -6 3 7 2 16 -1 19 -3 4 -6 -2 -5 -13z"/>
<path d="M8485 9840 c-3 -6 1 -7 9 -4 18 7 21 14 7 14 -6 0 -13 -4 -16 -10z"/>
<path d="M8696 9815 c-3 -9 -11 -13 -17 -9 -8 5 -9 3 -4 -5 6 -10 11 -9 23 3
9 8 13 18 10 21 -3 3 -8 -1 -12 -10z"/>
<path d="M8781 9804 c0 -11 3 -14 6 -6 3 7 2 16 -1 19 -3 4 -6 -2 -5 -13z"/>
<path d="M8382 9794 c10 -3 19 -19 21 -37 4 -31 5 -31 3 3 -1 27 -5 35 -21 37
-14 1 -15 0 -3 -3z"/>
<path d="M8540 9786 c7 -7 13 -7 20 0 6 6 3 10 -10 10 -13 0 -16 -4 -10 -10z"/>
<path d="M6592 9760 c0 -14 2 -19 5 -12 2 6 2 18 0 25 -3 6 -5 1 -5 -13z"/>
<path d="M8791 9754 c0 -11 3 -14 6 -6 3 7 2 16 -1 19 -3 4 -6 -2 -5 -13z"/>
<path d="M8450 9741 c0 -6 -10 -16 -22 -21 -16 -6 -18 -9 -7 -9 19 -1 45 26
35 36 -3 3 -6 1 -6 -6z"/>
<path d="M8878 9743 c7 -3 16 -2 19 1 4 3 -2 6 -13 5 -11 0 -14 -3 -6 -6z"/>
<path d="M8235 9720 c3 -5 8 -10 11 -10 2 0 4 5 4 10 0 6 -5 10 -11 10 -5 0
-7 -4 -4 -10z"/>
<path d="M8841 9677 c-13 -21 -12 -21 5 -5 10 10 16 20 13 22 -3 3 -11 -5 -18
-17z"/>
<path d="M8913 9650 c0 -25 2 -35 4 -22 2 12 2 32 0 45 -2 12 -4 2 -4 -23z"/>
<path d="M5926 9665 c-9 -26 -7 -32 5 -12 6 10 9 21 6 23 -2 3 -7 -2 -11 -11z"/>
<path d="M6082 9645 c0 -16 2 -22 5 -12 2 9 2 23 0 30 -3 6 -5 -1 -5 -18z"/>
<path d="M8290 9655 c-7 -9 -20 -13 -29 -10 -13 5 -14 4 -3 -7 10 -10 16 -8
34 10 12 12 20 22 16 22 -3 0 -11 -7 -18 -15z"/>
<path d="M5906 9615 c-9 -26 -7 -32 5 -12 6 10 9 21 6 23 -2 3 -7 -2 -11 -11z"/>
<path d="M5730 9573 c8 -3 19 -11 23 -17 6 -7 7 -6 4 4 -2 8 -12 16 -23 17
-13 2 -15 1 -4 -4z"/>
<path d="M9241 9566 c-6 -7 -14 -33 -17 -57 -6 -43 -4 -48 45 -104 51 -61 199
-195 214 -195 5 0 -13 17 -40 38 -52 42 -191 181 -205 207 -5 8 -6 36 -2 61 5
33 12 48 28 54 15 6 16 9 5 9 -9 1 -22 -5 -28 -13z"/>
<path d="M5421 9565 c0 -5 6 -21 14 -35 8 -14 14 -20 14 -15 0 6 -6 21 -14 35
-8 14 -14 21 -14 15z"/>
<path d="M5668 9554 c-39 -21 -35 -28 5 -8 37 19 44 24 31 24 -5 -1 -21 -8
-36 -16z"/>
<path d="M8946 9551 c-3 -5 2 -7 13 -4 13 3 21 -1 25 -14 4 -16 5 -15 3 2 -2
21 -31 33 -41 16z"/>
<path d="M8285 9540 c27 -12 43 -12 25 0 -8 5 -22 9 -30 9 -10 0 -8 -3 5 -9z"/>
<path d="M6011 9524 c0 -11 3 -14 6 -6 3 7 2 16 -1 19 -3 4 -6 -2 -5 -13z"/>
<path d="M7674 9513 c-36 -32 -106 -118 -123 -150 -8 -16 -9 -29 -2 -42 12
-22 82 -67 163 -107 l56 -27 47 17 c62 24 76 48 64 110 -12 67 -67 183 -97
207 -34 27 -72 24 -108 -8z"/>
<path d="M8236 9524 c-9 -8 -15 -30 -15 -47 l2 -32 4 30 c3 17 12 38 20 48 20
21 10 23 -11 1z"/>
<path d="M5871 9504 c0 -11 3 -14 6 -6 3 7 2 16 -1 19 -3 4 -6 -2 -5 -13z"/>
<path d="M5508 9493 c7 -3 16 -2 19 1 4 3 -2 6 -13 5 -11 0 -14 -3 -6 -6z"/>
<path d="M7130 9473 c-20 -14 -22 -22 -17 -77 2 -34 16 -86 30 -118 34 -76
125 -216 148 -229 31 -16 58 7 92 79 35 76 47 168 28 225 -18 54 -79 103 -143
115 -108 21 -115 21 -138 5z"/>
<path d="M5851 9434 c0 -11 3 -14 6 -6 3 7 2 16 -1 19 -3 4 -6 -2 -5 -13z"/>
<path d="M9047 9411 c-4 -17 -3 -21 5 -13 5 5 8 16 6 23 -3 8 -7 3 -11 -10z"/>
<path d="M5944 9409 c1 -7 12 -16 25 -20 14 -6 20 -5 16 1 -3 6 -12 10 -20 10
-7 0 -16 5 -18 10 -3 6 -4 5 -3 -1z"/>
<path d="M5831 9364 c0 -11 3 -14 6 -6 3 7 2 16 -1 19 -3 4 -6 -2 -5 -13z"/>
<path d="M9092 9350 l38 -31 -50 -49 c-68 -67 -66 -115 8 -145 30 -13 45 -14
84 -4 50 11 108 56 108 82 0 8 7 20 15 27 22 18 18 57 -6 81 -19 19 -29 21
-89 16 -60 -5 -70 -3 -86 15 -11 11 -28 24 -39 30 -11 6 -3 -4 17 -22z"/>
<path d="M7021 9314 c0 -11 3 -14 6 -6 3 7 2 16 -1 19 -3 4 -6 -2 -5 -13z"/>
<path d="M5938 9283 c7 -3 16 -2 19 1 4 3 -2 6 -13 5 -11 0 -14 -3 -6 -6z"/>
<path d="M5978 9273 c7 -3 16 -2 19 1 4 3 -2 6 -13 5 -11 0 -14 -3 -6 -6z"/>
<path d="M5896 9184 c-10 -31 -16 -58 -14 -60 3 -2 12 21 22 52 10 31 16 58
14 60 -3 2 -12 -21 -22 -52z"/>
<path d="M7022 9190 c0 -19 2 -27 5 -17 2 9 2 25 0 35 -3 9 -5 1 -5 -18z"/>
<path d="M8906 9209 c2 -4 22 -9 43 -11 22 -2 37 0 35 3 -2 4 -22 9 -43 11
-22 2 -37 0 -35 -3z"/>
<path d="M6028 9203 c7 -3 16 -2 19 1 4 3 -2 6 -13 5 -11 0 -14 -3 -6 -6z"/>
<path d="M5725 9175 c-31 -30 -32 -72 -4 -120 34 -57 83 -72 125 -37 22 18 45
100 25 87 -6 -3 -11 1 -11 10 0 24 -64 85 -89 85 -12 0 -33 -11 -46 -25z"/>
<path d="M6010 9176 c0 -2 8 -10 18 -17 15 -13 16 -12 3 4 -13 16 -21 21 -21
13z"/>
<path d="M7488 9164 c-26 -29 -31 -67 -18 -130 24 -114 79 -204 125 -204 26 0
61 37 108 115 79 131 73 166 -37 203 -102 34 -157 39 -178 16z"/>
<path d="M5507 9142 c-27 -30 -21 -79 12 -113 34 -34 64 -37 108 -9 59 35 52
99 -12 126 -47 19 -89 18 -108 -4z"/>
<path d="M6931 9134 c0 -11 3 -14 6 -6 3 7 2 16 -1 19 -3 4 -6 -2 -5 -13z"/>
<path d="M6067 9129 c7 -7 15 -10 18 -7 3 3 -2 9 -12 12 -14 6 -15 5 -6 -5z"/>
<path d="M7012 9110 c0 -14 2 -19 5 -12 2 6 2 18 0 25 -3 6 -5 1 -5 -13z"/>
<path d="M9121 9084 c0 -11 3 -14 6 -6 3 7 2 16 -1 19 -3 4 -6 -2 -5 -13z"/>
<path d="M7001 9054 c0 -11 3 -14 6 -6 3 7 2 16 -1 19 -3 4 -6 -2 -5 -13z"/>
<path d="M8833 9061 c27 -4 53 -14 58 -22 5 -9 9 -10 9 -2 0 19 -35 33 -77 32
-36 -2 -36 -2 10 -8z"/>
<path d="M9132 9040 c0 -14 2 -19 5 -12 2 6 2 18 0 25 -3 6 -5 1 -5 -13z"/>
<path d="M8937 9019 c-15 -11 -31 -38 -38 -61 -10 -37 -8 -46 23 -107 21 -42
45 -73 65 -86 17 -11 34 -27 36 -35 4 -11 5 -11 6 3 0 9 9 17 19 17 10 0 28
10 40 23 30 32 28 95 -3 172 -28 69 -28 68 -15 60 6 -3 10 -4 10 -1 0 10 -64
36 -90 36 -15 0 -39 -9 -53 -21z"/>
<path d="M9164 9015 c-12 -8 -25 -11 -29 -7 -5 4 -5 1 -1 -5 9 -17 -12 -55
-26 -47 -7 5 -8 2 -4 -5 5 -7 14 -10 21 -7 8 3 21 -12 34 -40 25 -53 49 -64
132 -64 50 0 64 4 84 25 35 34 33 78 -3 115 -47 47 -164 67 -208 35z"/>
<path d="M6992 9000 c0 -14 2 -19 5 -12 2 6 2 18 0 25 -3 6 -5 1 -5 -13z"/>
<path d="M6150 8990 c8 -5 20 -10 25 -10 6 0 3 5 -5 10 -8 5 -19 10 -25 10 -5
0 -3 -5 5 -10z"/>
<path d="M5963 8930 c0 -25 2 -35 4 -22 2 12 2 32 0 45 -2 12 -4 2 -4 -23z"/>
<path d="M6981 8954 c0 -11 3 -14 6 -6 3 7 2 16 -1 19 -3 4 -6 -2 -5 -13z"/>
<path d="M6172 8930 c-45 -20 -72 -53 -72 -88 0 -38 31 -93 64 -113 88 -53
169 10 144 112 -11 46 -48 94 -78 102 -10 3 -36 -3 -58 -13z"/>
<path d="M8748 8933 c7 -3 16 -2 19 1 4 3 -2 6 -13 5 -11 0 -14 -3 -6 -6z"/>
<path d="M5590 8910 c-28 -28 -25 -67 11 -123 37 -59 82 -82 128 -66 51 18 78
98 51 150 -28 52 -152 77 -190 39z"/>
<path d="M6971 8904 c0 -11 3 -14 6 -6 3 7 2 16 -1 19 -3 4 -6 -2 -5 -13z"/>
<path d="M7259 8877 c-100 -42 -159 -105 -174 -188 -16 -85 91 -132 216 -96
79 23 139 92 139 160 0 41 -22 100 -45 123 -30 30 -64 30 -136 1z"/>
<path d="M6453 8883 c9 -2 25 -2 35 0 9 3 1 5 -18 5 -19 0 -27 -2 -17 -5z"/>
<path d="M6343 8873 c15 -2 37 -2 50 0 12 2 0 4 -28 4 -27 0 -38 -2 -22 -4z"/>
<path d="M6528 8873 c7 -3 16 -2 19 1 4 3 -2 6 -13 5 -11 0 -14 -3 -6 -6z"/>
<path d="M8462 8836 c7 -8 15 -12 17 -11 5 6 -10 25 -20 25 -5 0 -4 -6 3 -14z"/>
<path d="M5920 8808 c-14 -16 -20 -35 -20 -69 0 -39 5 -51 26 -68 34 -27 50
-26 79 4 49 48 19 155 -44 155 -11 0 -29 -10 -41 -22z"/>
<path d="M6525 8809 c4 -5 13 -9 21 -9 8 0 28 -7 44 -15 17 -9 30 -13 30 -11
0 8 -38 27 -72 36 -17 5 -26 5 -23 -1z"/>
<path d="M7725 8789 c-61 -32 -115 -88 -115 -119 0 -78 119 -82 236 -7 85 54
95 99 29 130 -48 23 -102 21 -150 -4z"/>
<path d="M8791 8771 c-96 -39 -121 -123 -57 -187 42 -42 87 -45 139 -10 32 22
36 23 40 8 3 -9 5 -1 6 19 1 46 24 79 42 61 7 -6 12 -27 11 -45 -3 -41 28 -91
70 -113 60 -31 263 -1 310 46 51 52 33 111 -46 149 -96 45 -225 34 -295 -25
-30 -25 -30 -25 -43 -5 -9 15 -15 17 -25 9 -10 -8 -13 -5 -13 16 0 29 -44 82
-75 90 -11 2 -40 -3 -64 -13z"/>
<path d="M6680 8725 c19 -19 36 -35 39 -35 3 0 -10 16 -29 35 -19 19 -36 35
-39 35 -3 0 10 -16 29 -35z"/>
<path d="M6019 8653 c-13 -16 -12 -17 4 -4 9 7 17 15 17 17 0 8 -8 3 -21 -13z"/>
<path d="M5687 8610 c-47 -38 -45 -112 5 -160 67 -65 140 -79 183 -36 49 49
46 96 -11 169 -36 46 -38 47 -94 47 -43 0 -64 -5 -83 -20z"/>
<path d="M7476 8566 c-31 -30 -32 -45 -7 -94 31 -59 147 -162 184 -162 46 0
64 107 28 165 -20 35 -113 101 -153 110 -21 5 -33 1 -52 -19z"/>
<path d="M6169 8566 c-20 -10 -24 -19 -22 -55 1 -24 10 -54 20 -68 10 -14 24
-35 30 -47 7 -11 13 -15 13 -8 0 18 17 15 39 -9 l20 -21 -6 21 c-3 12 -1 21 6
21 6 0 16 12 22 26 13 35 -3 83 -39 116 -36 33 -54 39 -83 24z"/>
<path d="M8901 8514 c0 -11 3 -14 6 -6 3 7 2 16 -1 19 -3 4 -6 -2 -5 -13z"/>
<path d="M7320 8477 c-29 -15 -54 -79 -45 -117 19 -76 103 -82 140 -10 21 41
19 75 -7 104 -29 31 -57 39 -88 23z"/>
<path d="M8643 8460 c-34 -14 -65 -69 -58 -104 6 -32 31 -66 49 -66 6 0 17 -4
25 -9 11 -7 8 -16 -14 -47 l-27 -39 38 41 c22 23 53 47 70 53 38 15 58 49 52
90 -5 33 7 43 15 14 4 -17 5 -17 6 0 0 10 -7 21 -16 24 -10 4 -31 17 -46 30
-30 24 -57 28 -94 13z"/>
<path d="M8915 8408 c-25 -29 -27 -38 -22 -94 8 -99 54 -154 130 -154 50 0 97
54 97 111 0 85 -69 169 -139 169 -32 0 -44 -6 -66 -32z"/>
<path d="M8856 8385 c-9 -26 -7 -32 5 -12 6 10 9 21 6 23 -2 3 -7 -2 -11 -11z"/>
<path d="M6192 8335 c0 -16 2 -22 5 -12 2 9 2 23 0 30 -3 6 -5 -1 -5 -18z"/>
<path d="M8830 8323 l-13 -28 -8 25 c-6 23 -7 23 -8 3 -2 -33 16 -37 35 -8 9
14 15 28 12 30 -3 3 -11 -7 -18 -22z"/>
<path d="M6290 8310 c6 -11 13 -20 16 -20 2 0 0 9 -6 20 -6 11 -13 20 -16 20
-2 0 0 -9 6 -20z"/>
<path d="M5762 8268 c-18 -18 -14 -56 7 -68 29 -15 39 -13 56 14 13 19 14 29
5 45 -12 23 -49 28 -68 9z"/>
<path d="M6325 8260 c10 -11 20 -20 23 -20 3 0 -3 9 -13 20 -10 11 -20 20 -23
20 -3 0 3 -9 13 -20z"/>
<path d="M5942 8253 c-7 -3 -19 -18 -28 -35 -21 -41 -4 -105 43 -153 61 -63
120 -60 153 7 27 56 25 90 -6 128 -43 51 -111 74 -162 53z"/>
<path d="M6350 8226 c0 -2 8 -10 18 -17 15 -13 16 -12 3 4 -13 16 -21 21 -21
13z"/>
<path d="M6910 8198 c-10 -21 -10 -21 3 -6 8 10 17 15 20 11 4 -3 7 -1 7 5 0
20 -19 13 -30 -10z"/>
<path d="M8058 8168 c-2 -40 -7 -54 -20 -56 -9 -2 -18 5 -21 15 -4 15 -5 15
-6 2 0 -9 5 -22 13 -28 23 -19 46 13 46 65 0 32 3 43 12 38 7 -4 8 -3 4 4 -15
25 -25 10 -28 -40z"/>
<path d="M6792 8185 c-22 -27 -38 -32 -45 -12 -4 9 -6 9 -6 -1 -2 -27 31 -25
55 4 20 25 25 27 35 14 9 -12 10 -12 7 -1 -7 25 -25 23 -46 -4z"/>
<path d="M8163 8195 c-3 -9 -3 -19 1 -22 3 -4 6 1 6 10 0 25 16 21 38 -10 19
-27 53 -27 51 -1 0 10 -2 10 -6 1 -7 -20 -23 -15 -45 12 -22 29 -36 32 -45 10z"/>
<path d="M8096 8177 c3 -10 9 -15 12 -12 3 3 0 11 -7 18 -10 9 -11 8 -5 -6z"/>
<path d="M6932 8153 c-2 -39 23 -69 44 -52 8 6 14 17 14 23 0 6 -4 5 -9 -3
-14 -22 -39 -5 -44 31 l-4 33 -1 -32z"/>
<path d="M6995 8160 c-3 -6 1 -7 9 -4 9 3 48 -11 88 -32 72 -38 75 -38 185
-39 l113 0 0 -57 0 -57 110 0 110 0 0 57 0 57 113 0 c110 1 113 1 185 39 40
21 79 35 88 32 8 -3 12 -2 9 4 -10 17 -31 11 -103 -26 -85 -45 -181 -54 -314
-31 -79 14 -97 14 -175 0 -133 -23 -228 -14 -314 31 -71 37 -94 43 -104 26z"/>
<path d="M8779 8155 c-38 -20 -53 -64 -45 -129 10 -74 40 -117 96 -135 37 -12
47 -12 68 0 71 40 87 127 36 200 -49 72 -102 93 -155 64z"/>
<path d="M6876 8134 c-3 -9 -12 -14 -21 -10 -8 3 -15 1 -15 -4 0 -17 37 -11
44 6 4 9 5 19 2 21 -2 2 -6 -4 -10 -13z"/>
<path d="M8126 8118 c3 -4 12 -8 20 -8 8 0 14 4 14 8 0 4 -9 8 -19 8 -11 0
-17 -4 -15 -8z"/>
<path d="M7105 7966 c-91 -40 -115 -157 -48 -228 31 -33 88 -62 104 -53 5 4 7
27 3 53 -7 59 10 86 55 84 67 -2 151 -84 151 -147 0 -17 -7 -41 -16 -53 -13
-19 -14 -28 -4 -51 18 -45 94 -125 112 -119 15 6 28 67 28 134 0 18 5 36 10
39 6 4 10 -7 10 -27 0 -70 13 -140 27 -145 18 -7 68 40 100 96 25 41 25 44 10
71 -25 41 -21 82 11 122 37 49 84 79 123 80 45 1 62 -24 55 -84 -3 -26 -1 -50
5 -53 15 -10 96 34 114 62 45 68 38 141 -20 192 -47 41 -84 46 -201 24 -128
-23 -344 -23 -468 0 -105 20 -122 20 -161 3z"/>
<path d="M7127 7243 c-13 -12 -7 -60 8 -73 8 -7 25 -10 39 -6 51 13 40 86 -13
86 -15 0 -31 -3 -34 -7z"/>
<path d="M7801 7232 c-22 -41 13 -82 58 -67 46 14 30 85 -19 85 -18 0 -33 -7
-39 -18z"/>
<path d="M6988 7168 c-24 -20 -28 -44 -12 -67 17 -23 53 -28 72 -9 19 19 15
66 -7 78 -25 13 -34 13 -53 -2z"/>
<path d="M7958 7169 c-21 -12 -24 -59 -6 -77 19 -19 55 -14 72 9 16 23 12 47
-12 67 -19 14 -31 15 -54 1z"/>
<path d="M4244 5731 c-23 -10 -52 -34 -65 -52 -23 -33 -24 -41 -24 -204 0
-160 1 -172 23 -202 12 -17 42 -41 65 -52 39 -19 61 -21 230 -21 205 0 231 5
279 56 27 29 48 73 48 100 0 10 -13 14 -45 14 -34 0 -45 -4 -45 -15 0 -9 -11
-27 -25 -40 -24 -25 -26 -25 -214 -25 l-189 0 -26 31 c-25 29 -26 36 -26 154
0 118 1 125 26 154 l26 31 189 0 c188 0 190 0 214 -25 14 -13 25 -31 25 -40 0
-11 11 -15 45 -15 50 0 55 8 31 63 -16 39 -61 82 -99 96 -16 7 -107 11 -215
11 -161 0 -193 -3 -228 -19z"/>
<path d="M5020 5739 c-32 -13 -78 -56 -96 -91 -10 -20 -14 -67 -14 -173 0
-158 5 -178 57 -227 45 -43 72 -48 270 -48 220 0 254 10 299 86 25 42 25 47
22 201 -3 181 -12 204 -91 242 -39 19 -60 21 -233 20 -104 0 -200 -5 -214 -10z
m431 -105 c23 -24 24 -31 24 -161 l0 -135 -28 -24 c-28 -23 -32 -24 -212 -24
-180 0 -184 1 -212 24 l-28 24 0 135 c0 130 1 137 24 161 l24 26 192 0 192 0
24 -26z"/>
<path d="M5690 5475 l0 -275 256 0 255 0 -3 43 -3 42 -207 3 -208 2 0 230 0
230 -45 0 -45 0 0 -275z"/>
<path d="M6372 5733 c-43 -21 -79 -64 -92 -111 -5 -20 -10 -86 -10 -147 0
-125 10 -172 46 -214 46 -55 87 -63 305 -59 l196 3 37 29 c62 47 76 90 76 241
0 141 -13 187 -61 232 -42 38 -73 43 -272 43 -156 0 -198 -3 -225 -17z m443
-98 c24 -23 25 -29 25 -160 0 -131 -1 -137 -25 -160 -24 -25 -26 -25 -212 -25
-132 1 -193 4 -204 13 -32 24 -39 56 -39 172 0 117 12 166 42 178 7 3 98 6
201 6 187 1 188 1 212 -24z"/>
<path d="M7050 5475 l0 -275 45 0 45 0 0 100 0 100 228 0 c164 0 231 -3 240
-12 8 -8 12 -45 12 -100 l0 -88 45 0 45 0 0 93 c0 62 -5 101 -15 120 -13 25
-13 32 0 57 23 44 20 177 -5 217 -37 61 -49 63 -360 63 l-280 0 0 -275z m558
173 c16 -16 16 -130 0 -146 -9 -9 -76 -12 -240 -12 l-228 0 0 85 0 85 228 0
c164 0 231 -3 240 -12z"/>
<path d="M7840 5475 l0 -275 305 0 305 0 0 45 0 45 -265 0 -265 0 0 70 0 70
235 0 235 0 0 45 0 45 -235 0 -235 0 0 70 0 70 265 0 265 0 0 45 0 45 -305 0
-305 0 0 -275z"/>
<path d="M8580 5475 l0 -276 268 3 c267 3 269 3 305 28 67 46 77 78 77 245 0
140 -1 151 -25 191 -16 28 -39 49 -68 63 -41 20 -60 21 -300 21 l-257 0 0
-275z m541 159 c23 -24 24 -31 24 -161 l0 -135 -28 -24 c-28 -24 -30 -24 -243
-24 l-214 0 0 185 0 185 218 0 219 0 24 -26z"/>
<path d="M9550 5475 l0 -275 40 0 40 0 0 275 0 275 -40 0 -40 0 0 -275z"/>
<path d="M9780 5475 l0 -275 255 0 c207 0 263 3 292 15 92 39 113 87 113 260
0 151 -14 194 -76 241 l-37 29 -274 3 -273 3 0 -276z m545 160 c24 -23 25 -29
25 -158 0 -128 -1 -135 -25 -161 l-24 -26 -216 0 -215 0 0 185 0 185 215 0
c216 0 216 0 240 -25z"/>
</g>
</svg>
